<mxfile host="app.diagrams.net" modified="2024-04-24T07:17:37.543Z" agent="Mozilla/5.0 (Windows NT 10.0; Win64; x64) AppleWebKit/537.36 (KHTML, like Gecko) Chrome/124.0.0.0 Safari/537.36" version="24.2.8" etag="-Vxrj2qsaFSrLEmBMkre" type="github">
  <diagram name="ページ1" id="ZcJ4ESz7ykfOcomRvVOE">
    <mxGraphModel>
      <root>
        <mxCell id="0" />
        <mxCell id="1" parent="0" />
      </root>
    </mxGraphModel>
  </diagram>
</mxfile>
